<?xml version="1.0" standalone="no"?>
<!DOCTYPE svg PUBLIC "-//W3C//DTD SVG 20010904//EN"
 "http://www.w3.org/TR/2001/REC-SVG-20010904/DTD/svg10.dtd">
<svg version="1.0" xmlns="http://www.w3.org/2000/svg"
 width="512.000000pt" height="512.000000pt" viewBox="0 0 512.000000 512.000000"
 preserveAspectRatio="xMidYMid meet">
<metadata>
Created by potrace 1.11, written by Peter Selinger 2001-2013
</metadata>
<g transform="translate(0.000000,512.000000) scale(0.100000,-0.100000)"
fill="#000000" stroke="none">
<path d="M2514 5104 c-16 -8 -36 -23 -45 -34 -15 -17 -18 -17 -37 -4 -20 14
-52 10 -52 -6 0 -21 -205 -214 -399 -375 -13 -11 -28 -25 -35 -30 -6 -6 -45
-38 -86 -70 -41 -33 -77 -62 -80 -65 -3 -3 -39 -32 -80 -65 -41 -33 -77 -62
-80 -65 -4 -4 -79 -63 -105 -82 -5 -4 -26 -21 -45 -37 -19 -17 -75 -62 -123
-100 -86 -68 -168 -135 -191 -156 -6 -5 -38 -32 -71 -60 -121 -101 -252 -229
-287 -282 -20 -31 -23 -71 -9 -121 6 -20 6 -32 0 -32 -5 0 -9 -7 -9 -16 0 -8
-4 -12 -10 -9 -6 4 -7 -1 -3 -11 4 -10 2 -15 -4 -11 -20 13 -48 -41 -31 -59
13 -12 9 -26 -4 -18 -10 5 -10 4 -1 -6 6 -7 9 -18 7 -25 -3 -7 -1 -16 5 -19 6
-4 8 -13 4 -21 -3 -8 0 -15 7 -15 6 0 8 5 5 10 -9 15 4 12 20 -4 17 -16 10
-27 -13 -19 -14 4 -14 3 -3 -5 7 -5 10 -15 7 -21 -4 -6 -4 -11 1 -10 20 3 27
-2 14 -10 -12 -7 -12 -13 -3 -24 7 -7 8 -18 4 -22 -4 -5 -1 -4 7 0 10 6 13 4
9 -6 -3 -8 0 -23 8 -33 7 -11 11 -22 9 -27 -3 -4 4 -14 16 -22 15 -11 17 -16
7 -20 -10 -4 -10 -6 0 -6 6 -1 12 -8 12 -16 0 -8 5 -15 11 -15 5 0 7 -5 3 -12
-5 -7 -3 -8 6 -3 10 6 12 4 7 -9 -4 -10 -1 -19 8 -22 8 -4 12 -10 9 -15 -3 -5
0 -9 6 -9 6 0 9 -3 6 -8 -2 -4 2 -18 10 -32 7 -14 13 -19 14 -12 0 7 4 11 10
7 5 -3 7 -12 4 -19 -3 -7 2 -21 11 -30 9 -9 13 -16 8 -16 -4 0 -1 -5 7 -10 8
-5 16 -14 16 -20 1 -5 2 -15 3 -21 1 -6 10 -8 23 -3 21 6 22 5 8 -11 -10 -13
-11 -16 -2 -11 9 5 13 3 11 -5 -3 -27 1 -40 11 -34 5 3 10 3 11 -2 3 -31 10
-48 24 -55 8 -5 13 -14 9 -19 -3 -5 0 -8 6 -7 7 2 14 -6 16 -17 1 -11 8 -21
13 -23 6 -2 11 -10 11 -18 0 -8 5 -14 10 -14 6 0 10 -7 10 -16 0 -11 6 -14 23
-9 18 6 20 5 9 -6 -6 -7 -12 -17 -12 -23 0 -5 7 -1 15 10 15 19 15 19 30 0 8
-11 15 -15 15 -10 0 6 -4 15 -10 22 -5 7 -2 6 7 -2 13 -12 14 -18 4 -30 -7 -8
-19 -12 -27 -9 -8 3 -14 0 -14 -7 0 -6 5 -8 12 -4 8 5 9 2 5 -9 -4 -10 -2 -16
6 -14 7 1 11 -4 9 -11 -1 -8 2 -11 9 -6 9 5 10 2 6 -10 -4 -10 -3 -15 3 -11 6
3 10 -1 10 -9 0 -9 5 -16 10 -16 6 0 9 -5 8 -12 -2 -7 3 -12 11 -13 8 0 16 -6
19 -14 3 -9 0 -11 -8 -6 -9 5 -11 4 -6 -4 4 -6 12 -8 18 -5 7 5 9 2 5 -8 -9
-24 12 -39 37 -26 l21 11 -20 -23 c-11 -13 -14 -20 -6 -15 11 6 13 4 8 -8 -4
-10 0 -20 11 -26 9 -6 13 -11 8 -11 -5 0 -3 -6 4 -14 6 -8 19 -12 28 -9 14 6
15 4 5 -9 -11 -12 -8 -19 12 -38 13 -13 22 -26 20 -30 -8 -12 25 -49 40 -44 9
4 13 -1 11 -12 -3 -18 38 -99 55 -110 5 -3 7 -10 3 -15 -3 -5 0 -8 7 -7 7 2
13 -3 14 -10 0 -7 11 -22 25 -34 20 -16 21 -19 5 -13 -18 6 -18 4 3 -18 12
-13 19 -27 15 -32 -5 -4 -2 -5 5 -1 6 4 12 2 12 -3 0 -6 5 -11 11 -11 5 0 8 4
4 9 -3 5 0 13 6 17 8 5 9 3 4 -6 -6 -9 -4 -11 4 -5 10 5 9 2 0 -13 -7 -12 -17
-19 -21 -16 -4 3 -5 -2 -1 -11 4 -12 8 -13 13 -5 5 8 9 7 13 -4 3 -8 1 -17 -6
-20 -9 -3 -8 -5 1 -5 7 -1 10 -6 6 -13 -4 -6 -3 -8 4 -4 6 3 13 2 17 -4 3 -5
0 -10 -7 -10 -8 0 -7 -4 4 -11 10 -5 15 -16 12 -24 -4 -8 -1 -15 6 -15 6 0 8
-5 5 -10 -3 -6 0 -13 8 -16 8 -3 14 -13 13 -22 -2 -9 3 -27 11 -38 7 -12 16
-32 18 -44 5 -26 15 -40 15 -21 0 7 5 9 10 6 6 -4 7 -12 3 -18 -11 -18 -11
-30 3 -47 7 -8 13 -18 13 -22 1 -5 1 -9 2 -10 0 -2 2 -14 5 -28 2 -14 7 -32
11 -40 3 -8 7 -18 7 -22 1 -4 10 -14 21 -23 16 -12 17 -14 3 -9 -19 7 -25 -10
-8 -21 6 -4 8 -10 5 -15 -3 -5 3 -13 12 -19 14 -8 15 -10 3 -11 -9 0 -11 -3
-5 -8 6 -4 11 -18 13 -32 1 -14 3 -31 4 -38 1 -7 14 -24 30 -38 31 -25 30 -31
-3 -13 -18 9 -19 8 -10 -9 6 -11 7 -22 4 -26 -3 -3 -1 -6 6 -6 7 0 9 -5 6 -10
-3 -6 1 -13 10 -16 13 -6 14 -8 3 -15 -10 -7 -10 -9 2 -9 13 0 13 -1 0 -10
-11 -7 -11 -10 -2 -10 7 0 11 -4 7 -9 -3 -5 0 -13 6 -17 8 -4 7 -9 -2 -15 -11
-7 -11 -9 -1 -9 7 0 10 -5 7 -10 -3 -6 -2 -10 4 -10 5 0 8 -8 6 -18 -4 -23 11
-49 22 -39 4 5 1 12 -6 16 -8 5 -9 11 -3 15 18 11 23 -26 7 -44 -12 -13 -13
-20 -5 -25 6 -4 9 -14 5 -23 -3 -9 -3 -13 1 -9 9 8 34 -11 34 -27 0 -6 -4 -4
-10 4 -5 8 -12 11 -17 7 -4 -5 -2 -11 5 -16 6 -4 10 -16 8 -28 -4 -16 0 -20
20 -17 16 1 24 -2 21 -9 -2 -7 -13 -11 -23 -9 -16 2 -17 1 -4 -7 13 -10 13
-11 0 -11 -10 0 -11 -3 -4 -8 6 -4 10 -15 8 -24 -1 -10 2 -20 7 -24 5 -3 7
-10 4 -15 -4 -5 -1 -9 5 -9 6 0 9 -4 6 -8 -2 -4 -1 -14 4 -22 7 -12 12 -12 21
-3 8 8 18 9 29 3 12 -6 17 -5 17 5 0 7 -6 11 -13 8 -6 -2 -15 0 -19 6 -4 7 1
9 12 5 14 -4 15 -4 4 4 -11 8 -11 10 0 15 11 4 11 6 1 6 -7 1 -10 6 -7 12 5 6
12 4 21 -8 7 -10 14 -13 14 -6 0 6 -4 14 -9 18 -6 3 -8 14 -6 24 2 12 -2 18
-13 17 -10 -1 -16 6 -16 16 1 10 -3 15 -9 11 -6 -4 -7 -1 -2 7 6 9 4 11 -5 5
-10 -6 -11 -4 -4 6 5 8 9 21 9 29 0 8 4 21 9 29 6 9 5 12 0 8 -6 -3 -11 3 -11
14 -1 10 3 19 8 19 6 0 8 -4 5 -9 -4 -5 -1 -11 5 -13 7 -2 13 -17 14 -33 2
-17 4 -31 5 -32 1 -2 3 -11 5 -20 1 -10 4 -25 8 -33 5 -15 17 -63 18 -77 0 -5
4 -12 9 -18 4 -5 6 -18 5 -27 -2 -10 1 -18 6 -18 6 0 7 -5 3 -11 -4 -8 -9 -7
-15 2 -5 8 -9 10 -9 5 0 -5 -9 -1 -20 9 -11 10 -23 15 -27 12 -3 -4 0 -7 7 -7
9 0 7 -5 -6 -15 -19 -15 -19 -15 1 -8 11 3 17 3 14 -1 -4 -4 -17 -9 -29 -11
-24 -5 -40 -15 -24 -15 5 0 11 -12 12 -26 1 -14 5 -31 9 -37 4 -7 8 -25 9 -42
1 -16 3 -30 4 -30 2 0 11 -37 12 -52 1 -9 5 -10 15 -2 9 8 13 8 13 1 0 -6 -4
-14 -10 -17 -10 -6 -9 -32 1 -50 4 -5 5 -18 4 -28 -2 -9 1 -15 5 -12 5 3 11 1
15 -5 3 -5 0 -10 -7 -10 -10 0 -10 -2 -1 -8 7 -4 10 -16 9 -27 -2 -11 5 -28
16 -38 10 -10 15 -23 11 -29 -4 -8 -9 -5 -14 8 -6 14 -8 15 -8 3 -1 -9 2 -19
7 -23 7 -7 8 -11 11 -37 0 -6 8 -8 17 -5 10 4 13 2 8 -6 -5 -7 -3 -8 6 -3 8 5
11 4 6 -3 -4 -6 -13 -9 -21 -5 -17 6 -21 -12 -5 -22 6 -4 8 -10 5 -15 -3 -5
-1 -11 4 -15 6 -3 8 -12 5 -20 -4 -10 1 -13 18 -11 13 1 29 6 36 10 7 4 12 4
12 0 0 -3 7 -1 15 6 12 10 15 10 15 -1 0 -9 3 -10 8 -4 4 6 18 11 32 10 15 0
24 5 23 13 -2 6 2 12 7 12 6 0 10 -6 10 -12 0 -9 4 -8 10 2 9 13 10 13 10 0 0
-9 3 -11 8 -5 4 6 14 10 22 10 8 0 14 6 13 13 -2 6 2 12 8 12 6 0 9 9 6 19 -3
14 -1 18 9 14 10 -4 11 -10 3 -25 -6 -11 -9 -22 -6 -24 8 -8 37 8 37 21 0 8 4
17 10 20 6 3 7 -1 4 -9 -7 -17 11 -22 21 -6 3 5 11 10 16 10 6 0 7 -5 3 -12
-4 -7 -3 -8 5 -4 6 4 9 11 6 16 -3 5 -1 11 5 15 5 3 10 1 10 -6 0 -9 4 -9 15
1 8 6 19 9 25 5 5 -3 13 1 16 9 3 9 10 14 14 11 14 -9 60 17 60 34 0 13 2 13
9 2 5 -7 14 -10 20 -7 6 4 9 12 5 17 -3 6 5 8 20 5 16 -3 25 0 23 7 -1 7 6 11
16 9 14 -2 17 2 12 27 -3 16 -1 32 4 35 4 3 7 -6 5 -19 -1 -14 2 -27 7 -31 5
-3 9 2 9 11 0 9 5 13 10 10 6 -3 13 1 16 10 6 13 8 14 15 3 7 -10 9 -11 9 0 0
8 5 10 13 6 8 -5 7 -2 -2 9 -12 15 -11 17 10 14 24 -4 99 38 99 55 0 5 5 6 12
2 7 -5 8 -3 3 6 -6 9 -4 12 7 8 18 -7 103 57 88 67 -6 3 -8 11 -5 16 7 11 26
12 24 1 -4 -21 3 -23 21 -7 11 10 17 22 14 27 -3 5 0 8 7 6 18 -3 70 32 64 42
-3 5 -1 11 5 15 5 3 10 1 10 -6 0 -7 8 -3 18 8 9 11 33 30 52 43 19 12 26 19
15 16 -17 -5 -18 -4 -5 7 28 23 21 44 -13 38 -5 -1 -6 3 -2 9 4 6 -1 7 -10 3
-13 -5 -14 -7 -3 -14 10 -7 10 -9 -2 -9 -13 0 -13 -1 0 -10 8 -5 10 -10 4 -10
-5 0 -16 6 -23 12 -11 10 -12 10 -7 1 5 -9 2 -11 -8 -7 -11 4 -14 -1 -11 -23
1 -15 8 -27 15 -25 6 1 9 -2 5 -8 -5 -8 -11 -8 -19 -1 -9 7 -17 7 -26 -2 -10
-10 -11 -9 -5 3 5 8 5 12 0 8 -4 -4 -15 -2 -24 5 -14 10 -14 10 -4 -4 7 -9 9
-20 5 -24 -4 -5 -1 -5 7 0 10 6 12 4 7 -4 -5 -7 -10 -10 -13 -7 -3 3 -14 -5
-23 -17 -19 -23 -40 -18 -24 6 5 7 -4 -1 -19 -18 -16 -16 -25 -24 -21 -16 5
10 3 12 -7 6 -36 -21 -40 -27 -27 -43 12 -13 10 -14 -9 -1 -16 9 -19 16 -10
21 7 4 3 6 -10 6 -20 -2 -20 -3 -5 -28 16 -25 16 -25 -4 -8 -11 10 -25 18 -30
18 -5 0 -4 -4 2 -8 9 -5 8 -10 -1 -19 -11 -10 -13 -8 -12 10 2 27 36 57 56 49
8 -3 12 -1 8 5 -4 6 0 16 8 23 8 7 15 9 15 5 0 -5 9 0 20 10 11 10 20 14 20 9
0 -5 5 -2 10 6 5 8 13 15 18 15 5 0 16 8 26 17 10 10 37 30 62 44 24 14 44 30
44 36 0 5 4 6 10 3 5 -3 15 3 22 15 7 11 18 20 24 20 7 0 14 7 18 15 3 8 12
15 20 15 8 0 23 11 34 25 11 14 25 24 30 23 6 -2 10 1 11 5 0 8 61 62 70 62 7
1 62 48 102 87 18 18 29 23 33 15 3 -8 5 -6 5 3 1 19 41 55 41 37 0 -8 3 -7 9
3 6 8 7 18 5 22 -3 4 -1 8 4 8 6 0 30 20 54 44 31 30 49 41 59 36 7 -5 16 -7
20 -4 4 2 11 -1 14 -7 5 -7 -3 -9 -24 -6 -28 5 -30 3 -20 -14 7 -15 7 -19 -3
-17 -7 2 -12 -2 -11 -8 1 -6 -4 -11 -12 -11 -8 0 -11 5 -8 10 3 6 1 7 -6 3 -6
-4 -9 -11 -6 -16 5 -7 -19 -22 -39 -24 -5 -1 -11 -8 -13 -16 -4 -13 -3 -13 7
0 10 13 11 13 7 0 -2 -8 -10 -14 -16 -12 -7 1 -9 -2 -5 -9 4 -8 3 -9 -4 -5 -8
5 -10 1 -6 -11 5 -17 5 -17 -6 0 -6 9 -16 15 -21 12 -5 -4 -7 -11 -4 -16 4 -5
1 -9 -5 -9 -6 0 -9 -4 -5 -9 3 -6 -4 -8 -15 -6 -13 3 -18 0 -14 -7 5 -7 2 -8
-6 -3 -9 6 -11 4 -5 -5 6 -9 4 -11 -5 -5 -9 6 -11 4 -5 -5 6 -10 3 -12 -11 -7
-16 5 -15 4 3 -9 21 -15 22 -51 1 -38 -6 4 -5 10 3 15 10 6 -28 6 -60 0 -3 -1
0 -6 7 -13 7 -7 12 -17 12 -23 0 -5 -5 -3 -10 5 -9 13 -10 13 -10 0 0 -12 -2
-12 -9 -1 -6 9 -11 10 -15 2 -6 -10 6 -15 27 -12 9 1 9 -13 0 -22 -3 -4 -15 1
-26 10 -11 10 -17 13 -14 6 4 -6 2 -15 -4 -19 -8 -5 -9 -3 -4 6 5 9 4 11 -4 6
-6 -4 -9 -11 -6 -16 3 -4 -2 -10 -10 -14 -8 -3 -12 -11 -9 -19 3 -8 -6 -18
-21 -25 -31 -14 -38 -15 -30 -3 3 5 1 12 -4 16 -6 3 -8 -5 -5 -20 4 -24 -5
-33 -20 -18 -3 4 -13 8 -22 9 -11 2 -12 -1 -5 -10 6 -7 7 -17 3 -21 -4 -5 -1
-5 5 -1 9 5 11 2 6 -9 -4 -13 -8 -14 -14 -4 -4 7 -5 17 -3 21 3 4 0 8 -6 8 -7
0 -9 -9 -5 -22 7 -22 6 -22 -7 -4 -12 15 -17 16 -23 6 -5 -9 -4 -11 3 -6 7 4
12 2 12 -4 0 -7 -7 -10 -17 -6 -15 5 -14 3 2 -9 11 -9 21 -20 21 -25 1 -6 2
-12 3 -15 0 -3 10 3 20 12 11 9 17 21 14 26 -4 6 1 8 11 4 11 -5 15 -3 10 5
-5 7 -2 9 9 5 19 -7 36 11 32 36 -2 9 1 17 6 17 5 0 9 -4 9 -10 0 -5 9 -2 19
7 11 9 17 23 13 32 -5 14 -4 14 14 1 15 -11 16 -11 7 0 -17 19 -16 35 0 21 11
-8 21 -5 43 14 16 14 32 25 37 25 4 0 7 7 7 15 0 8 5 14 12 12 6 -1 16 7 22
18 7 11 18 21 26 23 8 2 17 7 20 10 3 4 22 22 43 40 21 17 33 32 27 32 -5 0
-10 4 -10 9 0 4 10 8 23 7 18 -1 21 4 19 23 -2 21 0 22 15 10 14 -12 16 -12 8
0 -6 11 -4 13 7 8 24 -8 39 12 27 35 -6 11 -8 22 -5 26 3 3 6 0 6 -7 0 -7 5
-9 12 -5 6 4 8 3 4 -4 -3 -6 -1 -14 6 -18 7 -4 10 -4 6 1 -5 5 5 16 22 26 19
12 28 24 24 33 -4 11 0 14 15 11 11 -2 20 -1 18 3 -1 4 1 7 5 7 13 0 57 48 52
57 -3 5 0 8 7 6 18 -3 80 42 73 54 -3 4 0 8 5 8 6 0 14 1 19 1 11 2 77 62 77
70 0 4 3 11 8 15 4 4 7 2 7 -4 0 -9 5 -9 19 0 11 7 17 16 15 20 -3 4 0 8 5 8
21 0 26 2 39 12 8 7 9 14 2 23 -5 6 -6 16 -2 20 4 5 2 5 -5 1 -7 -4 -12 0 -12
11 1 10 -2 29 -5 43 -4 21 2 29 38 52 23 15 53 31 67 36 40 16 50 34 35 64
-28 54 -96 239 -141 383 -45 144 -83 287 -220 829 -35 138 -72 283 -84 321
-24 84 -128 295 -222 451 -69 114 -327 505 -339 514 -4 3 -9 10 -11 15 -2 6
-52 83 -112 172 -59 89 -107 167 -107 172 0 5 -4 11 -8 13 -12 5 -125 210
-175 318 -25 52 -61 145 -82 205 -20 61 -41 114 -46 119 -5 6 -27 5 -58 -3
-44 -11 -53 -10 -76 5 -22 14 -32 15 -62 6 -20 -6 -39 -9 -43 -7 -19 12 -61
11 -86 -1z m-1707 -1606 c1 -18 7 -42 13 -48 12 -12 30 -51 30 -64 0 -8 7 -17
16 -20 9 -4 14 -9 11 -13 -4 -3 2 -18 12 -32 10 -14 21 -33 24 -41 4 -8 18
-32 32 -52 14 -21 20 -38 15 -38 -6 0 -8 -5 -5 -10 4 -6 10 -8 15 -5 18 11 21
-17 3 -37 -18 -21 -18 -21 5 -9 19 10 23 9 31 -12 5 -12 16 -29 25 -36 9 -7
16 -22 16 -32 0 -11 4 -19 8 -19 12 0 40 -54 35 -68 -3 -7 0 -11 5 -10 6 2 11
-1 12 -7 1 -5 7 -13 15 -18 7 -4 24 -27 38 -51 19 -33 22 -47 13 -56 -8 -9 -6
-11 12 -5 14 4 22 2 22 -6 0 -7 10 -23 22 -36 12 -13 16 -23 9 -23 -7 0 -9 -5
-6 -10 4 -6 10 -8 14 -6 4 3 12 -3 18 -13 8 -13 7 -22 -3 -36 -8 -10 -14 -14
-14 -9 0 6 -6 11 -12 10 -16 0 -52 -36 -37 -36 5 0 7 -5 3 -11 -9 -16 -24 10
-17 30 5 12 3 13 -6 5 -10 -9 -10 -17 -1 -33 6 -12 15 -19 21 -16 5 4 9 1 9
-4 0 -6 -5 -11 -12 -11 -6 0 -9 -3 -6 -6 4 -3 16 -1 27 5 18 10 20 9 14 -6 -4
-12 1 -9 15 7 12 14 21 20 22 13 0 -6 -5 -15 -10 -18 -6 -4 -7 -12 -3 -18 7
-10 9 -39 4 -71 0 -5 -8 -3 -16 4 -10 9 -15 9 -15 1 0 -10 14 -15 34 -12 5 1
6 -5 3 -13 -4 -9 -2 -18 3 -21 13 -8 82 44 74 56 -3 5 3 6 13 2 19 -7 18 -5
-11 17 -18 13 -19 13 -11 0 7 -13 6 -13 -6 -1 -11 10 -11 15 -1 18 6 3 12 9
12 15 0 7 -5 6 -14 -1 -10 -8 -16 -8 -25 2 -6 8 -8 17 -4 21 4 4 -1 4 -12 0
-20 -7 -20 -6 0 9 11 8 23 13 27 11 4 -3 5 2 2 11 -5 13 -9 13 -18 3 -6 -7
-10 -11 -9 -9 2 2 -2 10 -8 18 -9 10 -8 13 2 13 11 0 11 2 -1 10 -8 5 -11 12
-7 16 8 9 31 -19 65 -80 12 -22 22 -36 22 -31 1 14 50 -68 50 -83 0 -7 14 -25
31 -40 16 -15 32 -36 33 -47 2 -11 10 -19 17 -17 9 1 8 -3 -3 -11 -10 -8 -15
-16 -12 -19 3 -4 0 -9 -7 -14 -7 -4 -10 -3 -6 3 3 5 0 10 -8 11 -8 1 -22 3
-32 4 -13 1 -13 4 5 18 12 10 18 20 15 24 -3 3 -11 -2 -18 -10 -11 -15 -12
-15 -12 0 0 9 5 16 11 16 6 0 5 5 -2 12 -9 9 -9 15 0 25 6 8 7 13 2 12 -23 -4
-31 3 -29 24 2 15 -2 24 -11 24 -7 0 -10 -5 -7 -10 3 -6 2 -7 -3 -4 -6 3 -9
-9 -9 -26 1 -18 -3 -39 -9 -47 -10 -13 -9 -13 8 0 19 15 19 14 2 -12 -10 -16
-14 -28 -10 -28 5 0 14 10 19 22 11 23 35 37 35 19 0 -6 -5 -10 -11 -8 -7 1
-13 -13 -15 -33 -2 -20 0 -29 5 -21 6 9 11 10 15 2 4 -6 2 -11 -5 -11 -8 0 -7
-5 2 -17 12 -14 12 -16 0 -8 -10 6 -12 4 -6 -5 6 -9 4 -11 -5 -5 -8 5 -11 4
-6 -3 4 -6 14 -8 23 -5 11 4 14 3 9 -6 -5 -7 -15 -10 -23 -7 -8 3 -11 2 -8 -3
8 -13 45 -9 38 4 -4 5 3 2 14 -8 11 -9 23 -14 28 -10 4 5 5 2 0 -6 -5 -10 -4
-12 4 -7 6 4 9 12 6 17 -4 5 -2 9 4 9 5 0 11 -5 13 -12 3 -7 7 -5 11 6 5 12 3
15 -6 10 -7 -5 -5 0 3 11 8 10 10 16 5 13 -6 -4 -11 6 -11 23 -1 16 2 29 7 29
5 0 9 -7 9 -15 0 -8 6 -15 13 -15 8 0 7 -4 -3 -10 -14 -9 -13 -11 10 -14 14
-2 43 -46 30 -46 -6 0 -8 -5 -5 -10 4 -6 10 -8 15 -5 5 3 14 -4 20 -15 6 -11
8 -20 4 -20 -4 0 2 -8 13 -17 25 -23 48 -64 44 -82 -1 -8 2 -10 10 -5 7 4 10
3 6 -4 -9 -14 -40 -9 -45 8 -3 7 0 10 6 6 6 -3 14 -2 17 4 4 6 3 10 -2 9 -4
-1 -10 0 -13 1 -30 11 -38 6 -35 -26 1 -22 -2 -31 -9 -26 -20 12 -35 10 -48
-6 -8 -10 -9 -13 -1 -9 6 4 14 3 17 -2 4 -5 2 -12 -4 -16 -5 -3 -10 -11 -10
-17 0 -5 8 -2 18 9 9 10 13 13 8 6 -5 -7 -5 -13 0 -13 5 0 3 -4 -5 -9 -9 -6
-10 -11 -2 -15 6 -4 11 -3 11 3 0 5 8 8 18 6 9 -2 19 -4 21 -4 3 -1 -4 -8 -15
-17 -18 -15 -18 -15 3 -5 30 15 32 14 29 -14 -3 -21 -1 -23 15 -14 11 5 19 12
19 15 0 3 -6 2 -12 -2 -10 -6 -10 -5 -1 8 7 8 9 19 5 23 -4 5 -1 5 7 0 9 -5
12 -4 7 3 -4 8 -2 10 7 6 8 -3 18 -1 22 5 3 6 0 9 -7 6 -7 -3 -19 4 -27 16
-11 19 -11 21 1 16 8 -3 15 1 15 8 0 7 -6 11 -13 8 -6 -2 -14 -1 -17 4 -3 4 6
9 19 9 20 2 23 -2 20 -26 -3 -23 0 -28 16 -25 10 2 16 0 13 -6 -4 -5 -1 -9 5
-9 6 0 10 -8 8 -17 -2 -10 2 -17 9 -16 7 2 10 -3 7 -11 -3 -7 2 -19 10 -26 9
-7 13 -16 10 -21 -3 -5 0 -9 6 -9 6 0 9 -4 5 -9 -3 -5 -1 -12 4 -16 6 -3 8
-12 5 -19 -3 -8 0 -17 5 -21 6 -3 8 -11 5 -17 -4 -6 0 -14 7 -19 10 -6 10 -9
2 -9 -7 0 -10 -7 -6 -16 5 -13 8 -13 15 -2 8 10 9 9 4 -4 -3 -10 -1 -20 5 -24
6 -3 8 -12 5 -20 -3 -7 -1 -16 5 -19 5 -4 7 -11 4 -16 -4 -5 0 -9 7 -9 10 0 9
-3 -2 -9 -8 -6 -18 -7 -22 -5 -4 3 -5 -3 -2 -13 4 -14 3 -15 -4 -4 -7 9 -12
10 -16 2 -4 -6 -2 -11 5 -11 10 0 10 -3 1 -12 -18 -18 -15 -31 6 -24 10 4 7
-2 -8 -14 -19 -15 -20 -19 -6 -13 16 5 18 3 13 -11 -4 -10 -3 -15 3 -11 5 3 7
-4 5 -15 -3 -14 0 -18 8 -13 7 4 5 -2 -3 -13 -14 -18 -14 -18 2 -5 10 7 15 18
11 24 -4 6 0 8 10 4 9 -3 19 -1 23 5 5 7 2 8 -6 3 -8 -5 -11 -4 -7 2 4 6 -1
10 -10 9 -9 0 -18 6 -21 14 -4 13 -3 13 10 2 13 -10 18 -10 24 -1 4 8 3 9 -5
5 -6 -4 -11 -4 -10 1 1 4 0 10 -1 13 -7 18 -7 70 1 70 9 0 13 -22 10 -49 -2
-8 2 -10 10 -5 8 4 10 3 5 -5 -4 -6 -2 -18 4 -26 7 -8 9 -15 5 -15 -4 0 -2 -7
5 -15 7 -8 9 -15 4 -15 -4 0 -3 -5 3 -11 6 -6 9 -18 6 -25 -3 -8 -1 -14 5 -14
6 0 9 -8 8 -17 -2 -10 1 -20 5 -23 5 -3 -1 -11 -12 -19 -17 -10 -20 -10 -13 1
5 9 2 8 -11 -2 -17 -13 -18 -13 -11 0 4 8 1 7 -7 -3 -9 -11 -17 -14 -20 -7 -3
6 -4 5 -3 -2 2 -7 11 -12 20 -10 9 2 16 -1 15 -5 -3 -19 2 -33 13 -33 6 0 8 3
5 7 -4 3 1 16 10 27 18 20 17 20 -2 6 -19 -14 -19 -14 -6 3 16 21 35 23 28 3
-3 -8 -2 -16 3 -18 5 -2 11 -12 13 -23 2 -11 9 -40 16 -65 7 -25 12 -45 10
-46 -2 0 1 -7 7 -15 6 -8 10 -23 8 -34 -1 -11 2 -23 9 -27 6 -4 8 -11 3 -15
-5 -4 -11 -2 -13 5 -3 6 -10 9 -15 6 -7 -5 -8 -2 -3 6 6 9 4 11 -5 5 -9 -6
-11 -4 -5 6 8 12 6 12 -8 0 -17 -14 -17 -23 0 -23 4 0 17 -5 28 -11 11 -6 24
-10 28 -9 5 1 6 -2 2 -8 -3 -5 0 -10 7 -10 9 0 9 -3 -2 -10 -13 -9 -13 -10 0
-10 12 0 12 -2 2 -9 -11 -7 -11 -9 2 -14 9 -4 13 -14 11 -27 -2 -11 0 -20 4
-20 5 0 9 -11 10 -25 3 -49 4 -55 15 -55 5 0 1 -7 -10 -15 -16 -13 -16 -14 -1
-9 9 3 17 5 17 3 0 -2 4 -19 9 -37 6 -20 6 -30 0 -27 -10 7 -11 0 -13 -64 -1
-34 -5 -45 -18 -47 -10 -1 -18 2 -18 7 0 6 -5 7 -11 3 -8 -4 -8 0 0 15 10 18
8 27 -13 54 -23 30 -24 35 -10 49 13 13 14 20 4 37 -6 12 -15 19 -19 17 -4 -3
-8 0 -9 7 -1 14 -10 51 -12 55 -9 10 -3 49 10 60 13 11 13 12 0 11 -27 -2 -44
1 -37 7 3 4 2 16 -4 27 -8 14 -8 18 0 13 16 -10 31 2 25 19 -4 8 -10 13 -14
10 -10 -6 -36 27 -35 45 0 8 -4 19 -10 23 -6 5 -2 6 10 3 17 -5 18 -4 5 6 -9
7 -16 21 -17 31 -2 35 -3 38 -15 31 -7 -4 -10 -4 -6 1 4 4 2 15 -5 23 -8 11
-8 14 0 9 22 -14 23 12 1 29 -20 14 -20 16 -3 10 18 -7 18 -5 -3 14 -16 15
-21 28 -16 42 5 15 3 19 -7 13 -8 -5 -11 -5 -7 0 4 4 3 14 -3 22 -6 7 -8 13
-4 13 4 0 1 7 -6 16 -17 20 -20 42 -8 50 6 3 5 11 -2 20 -6 7 -15 12 -19 9
-10 -6 -8 15 3 32 5 9 3 11 -6 7 -15 -5 -30 18 -31 49 -1 10 -8 22 -16 27 -8
5 -11 10 -6 10 5 0 3 7 -4 15 -7 8 -9 15 -5 15 4 0 2 7 -5 15 -7 8 -9 15 -5
15 5 0 0 9 -10 20 -10 11 -15 20 -11 20 4 0 2 8 -3 18 -6 11 -6 24 -1 32 12
20 -8 44 -25 30 -14 -12 -41 13 -31 29 4 5 2 12 -4 16 -6 4 -8 11 -4 16 3 6 0
9 -8 7 -7 -2 -14 1 -15 5 0 5 -12 21 -26 35 -14 15 -27 33 -29 41 -2 8 -10 23
-18 33 -8 10 -15 29 -15 41 0 14 -6 22 -18 22 -18 0 -39 24 -32 36 3 3 -7 16
-20 29 -19 18 -22 26 -14 37 11 13 9 15 -21 17 -8 1 -15 7 -15 14 0 7 -7 17
-15 22 -12 8 -12 10 -1 10 10 0 11 3 2 14 -8 10 -9 16 -1 21 5 3 10 11 10 16
0 12 -32 8 -41 -5 -4 -4 -10 -3 -13 3 -4 6 -2 11 4 11 6 0 2 14 -10 30 -12 17
-27 27 -33 24 -7 -4 -9 -4 -5 1 4 4 3 14 -3 22 -6 7 -8 13 -3 13 5 0 5 4 -1 8
-5 4 -19 17 -29 30 -18 21 -18 23 -1 42 17 19 17 21 0 40 -10 11 -22 17 -27
14 -5 -3 -15 0 -23 6 -12 10 -15 10 -15 -1 0 -8 -11 3 -25 24 -14 20 -25 39
-24 43 0 3 -12 19 -27 35 -15 16 -29 37 -30 46 -2 10 -11 23 -20 30 -12 9 -13
13 -5 13 11 0 11 3 1 15 -7 8 -9 15 -5 15 4 0 2 7 -5 15 -10 12 -15 13 -20 4
-6 -8 -9 -8 -14 0 -4 6 -3 11 3 11 5 0 -3 14 -20 32 -16 18 -28 37 -27 43 3
20 -14 47 -22 35 -5 -8 -9 -7 -13 5 -4 9 -3 13 3 10 6 -3 10 -2 10 2 0 5 9 9
21 10 17 2 18 -1 8 -13 -6 -8 -9 -17 -5 -21 3 -3 6 0 6 8 0 12 2 12 10 -1 10
-17 63 -23 53 -6 -4 7 -2 7 8 -1 11 -9 19 -7 38 8 21 17 16 25 -12 20 -5 -1
-5 4 -1 10 5 8 3 9 -7 4 -11 -7 -11 -5 1 10 12 15 12 17 1 10 -10 -6 -12 -4
-6 5 5 8 4 11 -2 7 -6 -4 -9 3 -8 17 2 14 -2 23 -11 23 -7 0 -10 -5 -7 -11 4
-6 -2 -4 -13 4 -18 14 -18 14 -4 -4 8 -11 10 -17 4 -13 -6 3 -11 0 -11 -8 0
-8 5 -15 10 -15 20 0 -1 -11 -29 -16 -22 -3 -25 -2 -14 6 8 5 11 10 6 10 -5 0
-18 -8 -28 -17 -16 -15 -21 -15 -28 -3 -5 8 -6 18 -3 24 4 5 -1 7 -10 3 -11
-4 -14 -2 -11 7 3 7 -2 19 -10 26 -9 7 -13 16 -10 21 3 5 0 9 -5 9 -6 0 -10 3
-10 8 3 17 -1 32 -9 30 -4 -2 -7 -1 -8 2 0 3 -7 16 -14 30 -8 14 -13 29 -12
34 2 5 -4 16 -13 26 -11 13 -13 20 -5 25 8 5 7 11 -2 22 -10 12 -8 18 12 35
14 11 19 17 13 13 -7 -3 -26 4 -43 16 -24 18 -29 28 -25 50 3 15 1 30 -5 34
-6 4 -5 15 2 30 6 13 15 22 19 19 5 -3 14 6 21 20 12 28 24 34 25 14z m220
-463 c-4 -8 -2 -17 4 -21 6 -4 5 -12 -3 -22 -8 -10 -9 -13 -1 -9 6 4 14 3 18
-3 4 -6 12 -7 18 -3 7 4 6 -1 -2 -10 -11 -14 -17 -15 -28 -5 -11 9 -17 9 -25
-3 -8 -11 -9 -11 -4 3 3 10 0 20 -6 24 -6 4 -8 3 -5 -2 3 -6 2 -16 -4 -24 -5
-8 -9 -10 -10 -5 0 6 -2 18 -4 27 -2 12 3 15 16 13 10 -2 20 2 20 8 1 7 2 17
4 22 1 6 3 13 3 18 1 4 5 7 8 7 3 0 4 -7 1 -15z m238 -374 c-3 -2 1 -11 8 -19
8 -11 8 -14 0 -9 -6 4 -14 3 -17 -2 -9 -14 -41 -6 -42 10 -1 23 6 29 31 27 13
-1 22 -4 20 -7z m49 -105 l25 -33 -30 -22 c-17 -13 -33 -20 -36 -17 -4 3 -1 6
6 6 7 0 9 5 4 13 -11 18 -13 37 -3 37 5 0 13 -7 18 -16 8 -15 10 -15 15 0 5
11 3 15 -5 10 -7 -5 -8 -3 -3 6 6 9 4 11 -5 5 -9 -6 -11 -4 -5 5 5 8 -1 19
-16 32 -14 10 -17 16 -7 12 9 -3 28 -20 42 -38z m-24 4 c0 -5 -4 -10 -10 -10
-5 0 -10 5 -10 10 0 6 5 10 10 10 6 0 10 -4 10 -10z m96 -85 c-3 -8 2 -19 12
-24 15 -9 13 -11 -15 -11 -7 0 -8 9 -4 40 0 6 4 10 7 10 3 0 4 -7 0 -15z m20
-91 c1 -9 0 -13 -4 -10 -3 4 -7 14 -8 22 -1 9 0 13 4 10 3 -4 7 -14 8 -22z
m71 -43 c7 7 10 3 9 -13 -1 -30 -26 -50 -44 -35 -39 32 -37 79 3 53 15 -10 26
-11 32 -5z m138 -212 c-4 -6 3 -21 16 -35 12 -13 19 -24 15 -24 -5 0 -3 -7 4
-15 9 -11 10 -18 1 -28 -6 -8 -8 -16 -5 -19 3 -3 0 -9 -6 -13 -6 -3 -10 -3 -9
2 3 19 -2 34 -10 28 -5 -3 -12 -1 -16 5 -4 6 -10 8 -15 5 -5 -3 -11 -1 -14 4
-4 5 -2 12 4 16 6 4 8 11 4 16 -3 5 -9 7 -14 4 -5 -3 -11 -1 -14 4 -7 10 13 9
31 -2 14 -9 21 2 17 27 -3 20 3 36 12 36 3 0 2 -5 -1 -11z m212 -472 c0 -8 -6
-14 -14 -14 -9 0 -10 4 -2 14 6 7 12 13 14 13 1 0 2 -6 2 -13z m7 -35 c3 -5
-1 -9 -9 -9 -8 0 -12 4 -9 9 3 4 7 8 9 8 2 0 6 -4 9 -8z m2401 -192 c-2 -11 2
-20 8 -20 9 0 8 -3 -1 -8 -9 -7 -8 -13 8 -27 24 -22 18 -35 -15 -29 -14 2 -25
1 -24 -3 4 -22 -2 -35 -14 -30 -7 3 -21 -1 -32 -9 -11 -8 -13 -14 -6 -14 7 0
-1 -11 -18 -26 -16 -14 -31 -24 -33 -23 -10 7 -47 -24 -42 -34 4 -7 4 -9 -1
-5 -4 4 -16 -3 -25 -15 -10 -12 -26 -22 -37 -22 -10 0 -17 -5 -16 -11 1 -7 -7
-20 -17 -29 -11 -10 -20 -14 -20 -10 0 4 -9 0 -21 -11 -12 -10 -24 -18 -28
-17 -3 2 -6 -4 -6 -13 0 -8 -9 -20 -19 -26 -13 -7 -17 -7 -12 0 6 10 -8 25
-26 28 -5 1 -11 2 -15 3 -4 0 12 21 36 45 24 25 49 44 55 43 6 -1 10 3 9 10
-2 7 4 10 12 7 10 -4 14 -1 12 7 -2 8 -2 11 0 7 9 -16 22 -7 18 12 -2 11 0 18
5 15 5 -3 13 3 19 12 6 10 11 14 11 10 0 -4 6 -2 14 5 8 7 12 16 9 20 -2 4 4
5 13 1 13 -5 15 -3 9 7 -5 9 -4 11 3 6 11 -7 17 6 13 27 -1 5 3 6 9 2 5 -3 10
0 10 7 0 9 3 9 10 -2 8 -13 10 -12 10 3 0 9 5 17 10 17 6 0 9 5 8 12 -2 7 2
12 9 13 7 0 19 9 27 20 9 11 16 17 16 13 0 -4 9 0 19 9 11 9 17 21 14 26 -3 6
-1 7 5 3 6 -3 13 -2 17 4 10 16 14 12 10 -10z m-405 -425 c0 -12 -19 -12 -23
0 -4 9 -1 12 9 8 7 -3 14 -7 14 -8z m-60 -48 c0 -7 -4 -6 -10 3 -8 12 -10 12
-10 1 0 -8 -3 -12 -6 -8 -9 9 6 28 17 22 5 -4 9 -12 9 -18z m-60 -52 c-13 -14
-26 -23 -28 -20 -3 3 -10 -3 -17 -12 -7 -9 -23 -18 -35 -20 -23 -3 -23 -3 -5
17 13 14 21 17 26 9 4 -8 9 -4 14 10 4 14 12 20 21 17 8 -3 17 1 20 9 4 8 11
15 17 15 6 0 0 -11 -13 -25z m-128 -96 c-2 -8 -8 -18 -14 -24 -8 -7 -9 -6 -4
3 4 7 3 19 -4 27 -9 11 -7 13 7 10 10 -1 17 -9 15 -16z m-1518 -64 c20 -20 22
-26 10 -35 -7 -7 -13 -15 -12 -18 0 -4 -1 -10 -2 -14 -1 -5 -3 -12 -4 -18 0
-5 -4 -10 -8 -10 -5 0 -7 1 -6 3 1 1 -5 13 -12 27 -17 30 -20 60 -7 78 12 16
12 16 41 -13z m1460 4 c-3 -5 -10 -7 -15 -3 -5 3 -7 10 -3 15 3 5 10 7 15 3 5
-3 7 -10 3 -15z m-110 -80 c12 10 14 9 12 -5 -2 -10 -12 -18 -24 -19 -12 -1
-20 1 -17 3 3 3 -1 12 -8 21 -11 14 -10 14 6 2 13 -10 20 -11 31 -2z m-48 -52
c4 -4 0 -7 -9 -7 -9 0 -18 4 -21 9 -7 10 20 9 30 -2z m-1224 -56 c-4 -10 -1
-12 8 -6 9 5 11 4 6 -3 -4 -7 -1 -12 6 -12 10 0 10 -2 -1 -9 -9 -6 -10 -11 -2
-15 6 -4 9 -11 6 -16 -3 -5 -1 -11 5 -15 6 -4 8 -11 4 -16 -3 -5 -1 -16 5 -23
9 -10 8 -15 -5 -20 -19 -7 -34 0 -34 17 0 8 3 8 9 -2 6 -9 11 -10 15 -2 4 6 2
11 -4 11 -6 0 -9 4 -6 9 3 4 -4 17 -15 27 -20 18 -21 18 -34 1 -8 -11 -15 -14
-18 -7 -3 6 -4 5 -2 -2 1 -7 8 -12 14 -10 15 3 14 -11 -1 -27 -11 -11 -10 -12
1 -6 10 6 12 4 6 -5 -6 -9 -4 -11 5 -5 9 6 11 4 5 -5 -5 -9 -4 -11 3 -6 7 4
10 2 9 -6 -2 -7 -2 -10 0 -5 6 9 23 -1 23 -13 0 -13 -31 -5 -41 11 -7 12 -9
12 -9 0 0 -19 -11 -8 -15 16 -2 10 -4 18 -5 18 -1 0 -3 14 -4 30 -1 17 -4 35
-8 40 -3 6 -4 18 -3 28 2 9 0 17 -4 17 -4 0 -8 6 -8 14 0 8 8 13 19 11 16 -3
22 6 19 27 0 4 12 -1 28 -10 18 -10 27 -22 23 -31z m1154 7 c-19 -26 -52 -31
-52 -8 0 12 8 17 26 16 13 -1 25 5 26 12 3 23 6 27 11 15 2 -7 -2 -22 -11 -35z
m-60 -50 c4 -6 3 -8 -3 -5 -6 4 -16 0 -23 -8 -7 -8 -9 -15 -5 -15 4 0 -3 -9
-16 -19 -26 -21 -47 -17 -28 5 6 8 14 12 17 10 2 -3 13 6 24 19 22 28 24 29
34 13z m-1098 -40 c8 -8 9 -15 1 -25 -14 -16 7 -46 27 -39 15 6 31 -19 29 -44
0 -8 4 -18 10 -22 9 -7 7 -8 -22 -8 -5 0 -8 6 -8 13 0 6 -10 13 -22 13 -12 1
-20 -3 -17 -7 3 -5 -3 -6 -13 -3 -15 5 -16 4 -3 -5 8 -6 11 -11 5 -11 -5 0 -1
-7 9 -15 11 -8 14 -15 7 -15 -7 0 -9 -5 -5 -11 4 -8 9 -7 15 2 5 8 9 10 9 5 0
-5 9 -1 21 10 17 15 22 16 29 4 4 -7 7 -22 5 -32 -2 -10 0 -18 6 -18 5 0 8 -3
8 -7 -5 -28 3 -73 12 -73 5 0 7 5 3 12 -5 7 -3 8 7 2 19 -12 42 -11 51 1 5 6
8 5 8 -4 0 -11 3 -11 17 0 13 11 17 11 20 2 5 -15 24 -18 20 -4 -1 5 1 10 6
10 8 2 67 -28 67 -33 0 -6 -23 -1 -37 7 -6 4 -14 3 -18 -2 -3 -6 -12 -8 -20
-5 -9 4 -18 -1 -21 -11 -6 -13 -9 -14 -16 -3 -6 9 -7 6 -3 -9 4 -14 2 -23 -4
-23 -6 0 -11 -5 -11 -12 0 -9 3 -9 12 0 15 15 28 15 28 1 0 -5 -5 -7 -12 -3
-6 4 -3 -4 8 -18 17 -23 20 -24 32 -9 7 9 10 10 6 2 -4 -8 0 -19 10 -27 16
-11 15 -12 -11 -10 -15 1 -33 5 -40 9 -6 4 -13 1 -16 -5 -2 -8 -8 -9 -13 -4
-5 5 -4 11 4 13 6 3 12 10 12 16 0 8 -4 7 -12 -1 -21 -21 -26 -13 -23 28 2 22
0 38 -5 35 -4 -2 -6 7 -4 20 3 29 -12 34 -20 7 -4 -10 -13 -19 -21 -19 -19 0
-19 7 1 22 15 10 14 12 -7 9 -13 -1 -26 -3 -29 -4 -3 -1 -8 -2 -12 -1 -4 0 -5
-7 -2 -17 5 -13 4 -14 -4 -3 -7 9 -12 10 -16 2 -4 -6 -2 -11 3 -11 8 0 7 -7
-1 -19 -14 -23 -28 -19 -23 7 2 9 4 17 5 17 1 0 3 8 5 17 2 10 -5 20 -14 23
-12 4 -17 15 -16 38 1 17 -5 40 -13 50 -8 9 -12 17 -8 17 4 0 4 6 0 12 -14 23
-11 49 8 59 10 5 18 7 18 4 0 -3 9 -1 20 5 11 6 20 16 20 23 0 9 -2 9 -8 -1
-6 -9 -16 -4 -37 18 -18 18 -23 30 -15 30 11 0 11 3 2 12 -14 14 -16 28 -4 28
4 0 13 -5 20 -12z m998 -33 c1 -8 -5 -20 -14 -27 -10 -8 -13 -9 -9 -1 4 6 3
15 -3 18 -8 5 -7 11 1 21 13 16 22 12 25 -11z m-46 -3 c0 -13 -12 -22 -22 -16
-10 6 -1 24 13 24 5 0 9 -4 9 -8z m-116 -34 c-12 -19 9 -29 26 -13 12 11 20
13 25 6 10 -18 28 -12 21 7 -5 14 -4 14 9 -2 10 -13 15 -15 15 -6 0 7 3 10 8
6 10 -11 -57 -66 -73 -60 -7 3 -19 -4 -27 -15 -8 -11 -20 -21 -28 -23 -8 -2
-21 -10 -27 -20 -13 -17 -29 -18 -50 -5 -12 8 -18 -4 -14 -26 1 -5 -3 -6 -8
-3 -5 4 -14 -2 -20 -11 -8 -14 -10 -15 -11 -3 0 13 -1 13 -11 0 -8 -12 -9 -10
-4 8 3 12 2 22 -3 22 -17 0 -32 -26 -27 -50 2 -12 2 -20 -2 -16 -3 3 -13 0
-21 -6 -8 -7 -22 -13 -31 -13 -9 0 -15 -7 -13 -15 3 -12 1 -13 -10 -2 -10 10
-15 9 -28 -7 -8 -11 -25 -22 -38 -24 -13 -2 -28 -10 -33 -18 -7 -11 -9 -12 -9
0 0 11 -3 11 -15 1 -9 -7 -18 -10 -22 -7 -3 4 -19 -3 -36 -15 -17 -12 -27 -17
-24 -11 16 25 -13 21 -33 -4 -15 -21 -18 -22 -10 -6 8 18 7 24 -10 33 -20 11
-22 9 -24 -19 -1 -8 -7 -16 -15 -19 -10 -3 -12 0 -8 11 7 19 -8 33 -18 17 -4
-6 -11 -8 -16 -4 -5 3 -7 10 -3 15 3 5 1 15 -5 22 -12 15 2 42 17 33 6 -3 14
-2 17 4 4 7 12 7 18 2 11 -7 19 -8 44 -3 3 0 -2 10 -13 22 -15 17 -16 22 -4
29 9 5 19 5 26 -1 8 -7 13 -6 16 1 1 5 14 13 28 16 14 3 30 6 35 7 6 2 16 7
24 11 9 6 12 5 7 -2 -3 -6 2 -16 13 -22 12 -6 18 -16 15 -25 -4 -8 -10 -12
-15 -9 -5 3 -7 9 -4 14 9 14 -12 21 -22 7 -15 -20 -10 -72 7 -72 8 0 15 5 15
12 0 6 3 15 8 19 4 4 7 1 7 -7 0 -8 -3 -19 -7 -25 -5 -5 0 0 10 10 12 13 14
22 8 24 -7 2 -4 10 7 20 10 10 11 13 2 7 -13 -9 -13 -8 -1 7 7 10 18 15 24 11
5 -3 17 3 25 13 12 16 14 16 9 2 -3 -10 -1 -20 5 -24 7 -5 8 -2 3 7 -7 11 -6
12 7 2 8 -7 18 -10 22 -6 4 4 4 -1 0 -12 -4 -11 -5 -18 -3 -15 33 39 42 52 32
47 -7 -5 -10 1 -9 18 2 13 0 22 -5 20 -4 -3 -10 -1 -14 5 -4 6 -11 8 -16 4 -5
-3 -6 -10 -3 -16 5 -7 2 -8 -6 -3 -9 6 -11 4 -5 -5 6 -10 4 -11 -6 -4 -8 4
-20 9 -27 10 -10 2 -11 -1 -1 -12 14 -17 6 -29 -13 -18 -21 13 -39 13 -32 1 5
-8 2 -8 -6 0 -15 13 -10 23 12 27 7 2 20 6 29 10 9 4 22 6 30 4 8 -2 13 3 11
11 -2 9 4 12 16 9 10 -3 27 1 36 8 10 7 25 10 34 7 10 -4 13 -2 8 5 -4 7 -1
12 6 12 8 0 20 6 27 13 6 6 16 13 21 13 6 1 11 2 13 4 10 8 57 9 57 0 0 -6 -6
-10 -13 -8 -7 2 -13 -1 -14 -7 -1 -5 4 -9 12 -7 7 1 16 -2 20 -8 3 -6 0 -7 -9
-4 -10 4 -16 1 -16 -7 0 -7 3 -9 6 -6 4 3 15 2 25 -4 15 -8 21 -6 26 6 3 9 9
12 12 7 4 -6 11 -5 18 3 10 11 6 13 -20 11 -42 -4 -49 1 -36 26 7 13 7 18 1
14 -6 -3 -13 -2 -16 3 -5 8 29 25 46 22 4 0 13 9 19 20 9 17 13 19 19 8 5 -7
6 -17 4 -21z m-809 -57 c-3 -5 -1 -12 5 -16 6 -4 8 -10 5 -15 -4 -6 -14 -4
-25 2 -14 9 -16 16 -8 25 12 15 32 18 23 4z m549 -108 c3 -14 0 -20 -9 -19
-23 3 -29 14 -17 29 7 8 10 16 8 19 -1 3 1 2 6 -1 5 -4 10 -17 12 -28z m-147
-30 c-4 -3 -2 -12 4 -19 7 -8 7 -14 -1 -19 -6 -3 -8 -11 -5 -16 4 -5 2 -9 -4
-9 -5 0 -8 15 -6 33 4 39 3 37 12 37 3 0 3 -3 0 -7z m-341 -49 c-1 -22 31 -26
44 -6 9 14 10 13 5 -5 -4 -14 -2 -23 4 -23 7 0 9 -12 6 -29 -4 -23 0 -34 20
-50 l26 -20 -33 3 c-18 2 -39 -1 -45 -7 -7 -5 -13 -6 -13 -3 0 4 -6 4 -12 0
-14 -9 -51 -13 -43 -6 3 3 0 11 -6 19 -6 7 -8 13 -4 13 4 0 1 8 -6 18 -7 9 -9
14 -5 10 15 -13 38 13 25 28 -8 9 -5 21 12 43 26 36 27 36 25 15z"/>
<path d="M766 3454 c-19 -19 -24 -29 -17 -38 6 -7 9 -23 6 -35 -5 -28 31 -63
58 -55 24 8 21 -12 -5 -30 -17 -12 -19 -19 -10 -28 8 -8 8 -15 1 -24 -7 -9 -4
-16 11 -27 13 -9 17 -17 11 -21 -7 -5 -6 -14 4 -30 8 -12 12 -26 8 -31 -5 -4
-3 -5 4 -1 6 3 16 -2 22 -11 6 -11 11 -13 11 -5 0 7 5 10 10 7 6 -4 7 -12 3
-18 -13 -20 -10 -31 15 -59 13 -14 24 -29 23 -32 -3 -17 1 -18 19 -1 15 13 23
15 33 7 11 -9 13 -5 13 21 -1 27 2 32 22 31 17 -1 20 1 11 12 -6 7 -18 10 -27
7 -15 -6 -15 -5 -3 10 8 10 11 20 7 24 -3 3 -6 2 -6 -3 0 -5 -9 -10 -20 -11
-24 -2 -26 10 -5 27 8 7 15 18 15 24 0 7 -4 6 -9 -2 -6 -11 -10 -10 -16 5 -5
10 -7 24 -6 31 1 6 -3 12 -9 12 -6 0 -9 4 -6 9 3 4 -3 19 -14 31 -11 12 -22
31 -25 41 -4 11 -11 19 -16 19 -6 0 -8 4 -4 9 3 5 1 12 -5 16 -6 4 -7 11 -4
17 4 6 2 8 -3 5 -12 -7 -27 20 -24 41 1 7 -5 15 -13 18 -9 3 -14 10 -11 14 3
5 1 11 -5 15 -6 4 -8 10 -5 15 13 21 -14 17 -39 -6z m29 7 c-3 -5 -1 -12 5
-16 6 -4 8 -10 5 -15 -3 -5 3 -13 12 -19 10 -5 15 -13 10 -17 -4 -4 4 -22 18
-39 13 -18 22 -35 19 -37 -2 -3 2 -11 11 -18 8 -7 15 -18 15 -25 0 -6 9 -20
20 -30 11 -10 18 -20 15 -23 -3 -3 0 -11 6 -19 6 -7 8 -13 5 -13 -4 0 0 -10 8
-22 11 -15 12 -25 5 -34 -13 -16 -2 -37 15 -31 8 3 12 -7 12 -34 0 -24 -4 -35
-10 -29 -5 5 -15 2 -25 -9 -9 -9 -15 -15 -13 -12 1 2 -8 15 -20 28 -26 28 -31
52 -12 60 8 3 14 10 14 16 0 6 -3 7 -7 4 -3 -4 -12 -2 -20 4 -7 6 -13 8 -13 4
0 -4 -7 -2 -15 5 -8 7 -13 16 -10 20 3 4 -2 11 -11 14 -9 4 -12 11 -7 18 13
22 12 40 -2 34 -17 -6 -30 10 -15 19 8 5 8 11 0 20 -8 10 -4 18 15 33 15 12
21 23 15 27 -6 3 -8 11 -5 16 9 13 -9 11 -23 -3 -18 -18 -52 17 -46 47 2 13
-1 27 -7 30 -7 5 -3 16 12 31 23 24 35 32 24 15z"/>
<path d="M772 3438 c-9 -9 -8 -16 5 -30 9 -10 11 -18 5 -18 -13 0 -10 -26 6
-42 17 -17 47 9 31 28 -6 8 -8 14 -4 14 5 0 1 8 -8 18 -8 9 -16 21 -15 25 0
15 -8 17 -20 5z m15 -5 c-4 -3 0 -15 10 -25 9 -10 13 -18 8 -18 -4 0 -2 -6 4
-14 8 -10 9 -16 1 -21 -18 -11 -31 4 -20 25 7 13 6 21 -5 30 -14 11 -12 30 2
30 4 0 3 -3 0 -7z"/>
<path d="M831 3294 c-16 -12 -20 -19 -12 -27 7 -7 7 -15 -1 -26 -10 -13 -10
-14 2 -3 8 6 17 12 20 12 9 0 6 -42 -3 -57 -5 -8 -1 -11 13 -8 21 4 27 -9 10
-20 -6 -4 -8 -11 -4 -16 3 -5 9 -7 14 -4 5 3 11 1 15 -5 4 -6 10 -8 15 -5 13
8 24 -15 12 -27 -6 -6 -8 -17 -5 -26 5 -11 3 -13 -8 -7 -8 5 -3 -4 10 -19 21
-22 26 -24 34 -11 4 8 12 13 16 11 18 -11 6 30 -13 46 -16 13 -18 19 -9 29 14
15 6 39 -14 39 -12 0 -13 3 -4 14 8 10 9 16 1 21 -6 3 -8 10 -5 14 2 5 -7 18
-20 31 -13 13 -22 26 -20 30 3 4 -1 13 -8 19 -10 8 -19 6 -36 -5z m29 -9 c-1
-4 11 -20 26 -36 15 -16 24 -29 20 -29 -5 0 -3 -6 3 -14 8 -9 8 -16 2 -20 -6
-4 -8 -13 -5 -21 4 -8 10 -13 14 -10 5 3 11 1 14 -4 4 -5 2 -12 -3 -15 -5 -4
-12 -2 -16 4 -4 6 -10 8 -15 5 -5 -3 -11 -1 -15 5 -4 6 -12 8 -18 4 -7 -3 -4
1 6 9 14 12 15 16 4 26 -8 6 -16 8 -19 5 -3 -3 -4 9 -3 26 2 22 -3 34 -18 42
-20 10 -20 11 -2 24 18 13 29 13 25 -1z m85 -224 c-12 -12 -18 -12 -27 -3 -9
9 -9 12 1 12 10 0 11 3 2 13 -17 21 0 29 21 10 17 -15 17 -18 3 -32z"/>
<path d="M846 3281 c-3 -5 1 -14 8 -21 8 -6 13 -20 11 -30 -4 -21 30 -57 39
-41 4 5 2 12 -4 16 -6 4 -8 10 -5 14 2 5 -7 18 -20 31 -13 13 -22 27 -19 31 3
5 3 9 0 9 -3 0 -7 -4 -10 -9z m40 -59 c-3 -3 0 -12 6 -21 10 -13 10 -14 -2 -4
-16 15 -23 46 -8 37 5 -3 7 -9 4 -12z"/>
<path d="M929 3087 c6 -8 7 -18 3 -22 -4 -5 -1 -5 6 -1 10 6 10 11 1 22 -6 8
-14 14 -16 14 -3 0 0 -6 6 -13z"/>
<path d="M1062 2948 c-15 -15 -73 -20 -88 -7 -8 6 -11 3 -10 -11 0 -12 19 -39
41 -61 22 -22 41 -45 41 -50 1 -5 3 -11 4 -14 1 -3 3 -8 4 -12 1 -5 7 -18 14
-29 6 -12 9 -24 6 -26 -2 -3 2 -11 11 -18 23 -19 31 -3 10 20 -10 11 -14 20
-9 20 5 0 3 4 -5 9 -7 5 -9 11 -5 14 5 3 18 -7 29 -22 12 -16 14 -22 4 -16 -8
6 -7 2 3 -7 23 -20 24 -28 6 -39 -11 -7 -11 -9 1 -9 7 0 11 -6 8 -15 -4 -8 4
-22 18 -33 13 -11 22 -21 20 -24 -3 -3 2 -5 9 -5 12 0 11 6 -4 27 -18 26 -18
26 0 38 14 8 21 8 26 1 4 -8 9 -7 15 2 4 8 17 14 29 14 11 0 20 3 20 8 0 4 -3
7 -6 6 -10 -1 -32 35 -28 46 3 6 -4 20 -16 30 -11 10 -20 15 -20 10 0 -4 -7
-2 -15 5 -12 10 -13 16 -4 26 9 11 7 15 -5 20 -9 3 -14 10 -11 14 3 5 -1 15
-9 23 -8 8 -13 17 -10 20 3 3 -4 10 -15 17 -13 6 -19 16 -15 23 4 7 4 9 -1 5
-4 -4 -13 -3 -20 2 -7 6 -16 5 -23 -2z m62 -49 c-2 -4 3 -12 11 -19 8 -7 12
-16 9 -21 -3 -5 2 -12 11 -15 13 -5 14 -9 4 -15 -10 -6 -9 -12 5 -28 10 -11
22 -18 26 -16 9 6 32 -19 28 -31 -1 -5 4 -20 11 -33 7 -13 8 -21 3 -17 -6 3
-14 1 -17 -5 -4 -5 -13 -8 -21 -5 -7 3 -16 1 -19 -5 -4 -5 -10 -7 -15 -4 -13
8 -19 -22 -7 -36 10 -12 9 -12 -2 -2 -8 7 -15 30 -16 50 -1 21 -12 54 -25 74
-22 33 -26 35 -37 20 -12 -15 -13 -15 -7 2 4 10 1 17 -6 17 -6 0 -8 5 -5 10 4
7 12 7 24 0 10 -5 21 -6 25 -2 4 3 4 -2 1 -13 -6 -16 -5 -17 4 -5 6 8 11 11
11 7 0 -5 5 -5 11 -2 7 5 4 14 -8 28 -17 20 -17 20 2 13 14 -4 11 1 -10 18
-16 14 -24 25 -17 26 6 0 12 5 12 10 0 6 -8 5 -20 -2 -11 -7 -20 -16 -20 -21
0 -4 5 -5 12 -1 7 4 8 3 4 -4 -4 -6 -14 -8 -23 -5 -11 4 -14 3 -9 -6 5 -7 14
-10 20 -8 7 3 13 -1 13 -9 0 -7 -8 -12 -19 -11 -21 4 -98 75 -98 92 0 6 3 7 8
0 11 -15 32 -17 32 -2 0 8 4 7 10 -3 7 -11 10 -11 10 -2 0 7 4 11 9 8 5 -3 14
1 21 9 11 13 16 12 40 -8 15 -12 26 -25 24 -28z m-18 -47 c-3 -3 2 -15 11 -26
14 -15 14 -18 2 -8 -9 6 -18 10 -20 7 -3 -2 -5 6 -5 20 0 13 4 21 9 18 4 -3 6
-8 3 -11z"/>
<path d="M1052 2920 c-12 -10 -32 -17 -44 -15 -18 4 -17 0 12 -30 34 -35 53
-48 31 -21 -8 9 -8 16 -2 20 6 4 8 13 5 21 -4 10 0 13 15 10 25 -5 36 9 18 23
-8 7 -19 5 -35 -8z m32 2 c3 -5 -1 -9 -9 -9 -8 0 -12 4 -9 9 3 4 7 8 9 8 2 0
6 -4 9 -8z m-39 -34 c4 -3 2 -9 -3 -12 -5 -3 -15 1 -21 8 -10 11 -9 14 3 12 9
-1 18 -5 21 -8z"/>
<path d="M1110 2881 c0 -5 7 -12 16 -15 14 -5 15 -4 4 9 -14 17 -20 19 -20 6z"/>
<path d="M1126 2794 c-11 -8 -14 -14 -8 -14 7 0 11 -3 10 -7 -1 -5 3 -17 9
-28 6 -11 9 -27 8 -36 -3 -16 17 -20 31 -7 3 4 12 4 19 2 21 -8 28 16 11 35
-19 20 -21 35 -4 25 7 -5 8 -3 4 5 -5 7 -11 10 -14 7 -3 -4 -15 3 -26 13 -19
17 -23 18 -40 5z m84 -78 c0 -4 -6 -6 -14 -3 -7 3 -19 0 -25 -6 -9 -9 -17 -4
-8 6 1 2 -5 14 -13 27 -14 23 -16 33 -11 58 2 9 71 -70 71 -82z"/>
<path d="M1144 2774 c1 -8 7 -19 13 -22 5 -4 9 -15 7 -25 -2 -14 1 -15 10 -8
7 6 17 7 21 3 5 -4 -4 10 -19 31 -32 41 -35 44 -32 21z"/>
<path d="M1304 2602 c3 -18 18 -20 24 -4 1 5 -4 12 -12 15 -9 4 -13 0 -12 -11z"/>
<path d="M1340 2566 c0 -3 9 -10 20 -16 11 -6 20 -8 20 -6 0 3 -9 10 -20 16
-11 6 -20 8 -20 6z"/>
<path d="M1245 2541 c-3 -5 -2 -12 3 -15 5 -3 9 1 9 9 0 17 -3 19 -12 6z"/>
<path d="M1352 2514 c-15 -10 -21 -22 -17 -33 5 -12 3 -13 -6 -4 -9 9 -17 8
-34 -5 -20 -15 -21 -17 -4 -37 10 -11 27 -31 38 -45 l20 -25 -3 28 c-2 15 0
30 4 32 4 2 6 23 4 45 -3 37 3 45 29 41 4 0 7 4 7 9 0 14 -12 12 -38 -6z m-9
-58 c3 3 4 -1 3 -10 -1 -8 -5 -18 -8 -22 -4 -3 -4 -13 -1 -22 3 -10 -6 -2 -20
17 -21 27 -24 37 -15 49 10 12 14 12 23 -2 7 -9 15 -13 18 -10z"/>
<path d="M1306 2461 c-3 -4 1 -16 8 -26 9 -13 15 -15 20 -6 4 6 0 14 -8 17 -9
3 -13 10 -10 15 3 5 3 9 0 9 -3 0 -7 -4 -10 -9z"/>
<path d="M1426 2442 c-7 -11 32 -48 41 -39 3 4 1 7 -6 7 -7 0 -10 4 -7 9 3 5
-1 14 -8 20 -8 7 -17 8 -20 3z"/>
<path d="M1442 2381 c-11 -7 -11 -9 1 -14 16 -6 27 0 27 15 0 10 -11 10 -28
-1z"/>
<path d="M1366 2341 c-4 -5 -2 -12 3 -15 5 -4 12 -2 15 3 4 5 2 12 -3 15 -5 4
-12 2 -15 -3z"/>
<path d="M1515 2288 c2 -10 0 -19 -6 -19 -5 -1 -13 -2 -18 -3 -5 0 -13 -4 -17
-8 -4 -4 -14 -2 -22 4 -21 18 -46 20 -32 3 8 -10 8 -15 0 -20 -8 -5 6 -25 38
-55 32 -30 49 -55 48 -67 -2 -10 1 -24 7 -31 8 -10 14 -9 28 4 10 9 24 14 32
11 9 -3 13 2 12 16 -1 12 0 28 3 35 4 11 6 11 13 0 7 -10 9 -10 9 1 0 11 4 9
16 -5 15 -19 15 -19 5 1 -5 11 -18 29 -30 39 -11 10 -19 22 -16 25 2 4 0 13
-6 21 -7 13 -9 13 -9 1 0 -11 -4 -10 -14 4 -8 11 -12 25 -9 32 3 7 0 13 -7 13
-6 0 -9 4 -6 8 3 5 -1 9 -9 9 -7 0 -12 -8 -10 -19z m20 -16 c1 -20 28 -52 38
-46 7 4 9 3 4 -1 -4 -5 3 -20 15 -33 13 -14 18 -22 11 -18 -11 6 -29 -15 -32
-36 -1 -5 -3 -7 -5 -5 -2 1 -13 -9 -25 -23 -11 -14 -21 -23 -21 -20 -7 31 -7
40 1 40 5 0 9 -5 9 -12 0 -6 3 -9 6 -5 3 3 -10 23 -30 43 -20 20 -36 41 -36
46 0 5 -4 7 -9 4 -4 -3 -16 3 -25 13 -12 13 -14 21 -6 26 5 3 7 12 3 18 -3 7
3 4 14 -6 14 -12 23 -15 28 -7 3 5 11 8 16 4 14 -8 40 16 32 30 -3 6 -2 7 3 3
5 -5 9 -12 9 -15z"/>
<path d="M1507 2242 c-13 -13 -17 -13 -17 -2 0 11 -3 11 -12 2 -8 -8 -15 -8
-24 -1 -7 6 -14 6 -18 1 -5 -9 23 -40 31 -34 8 6 24 1 19 -7 -7 -11 46 -64 68
-67 10 -1 15 0 12 3 -3 4 0 16 8 28 14 21 13 25 -8 44 -12 12 -26 18 -31 14
-4 -5 -5 0 -2 9 9 24 -6 30 -26 10z m13 -7 c-11 -13 -1 -22 14 -12 2 1 13 -6
24 -17 20 -17 20 -20 5 -43 l-16 -24 -28 27 c-16 15 -26 31 -23 35 2 4 -4 13
-13 19 -15 10 -16 11 -1 6 9 -2 22 2 28 10 7 8 15 14 17 14 3 0 0 -7 -7 -15z"/>
<path d="M1503 2204 c0 -7 10 -23 21 -33 21 -20 22 -20 33 -2 10 15 9 22 -2
31 -12 10 -13 8 -10 -10 3 -14 0 -20 -8 -17 -7 2 -11 11 -9 19 1 9 -4 18 -11
21 -8 3 -14 -1 -14 -9z"/>
<path d="M1456 2167 c3 -10 9 -15 12 -12 3 3 0 11 -7 18 -10 9 -11 8 -5 -6z"/>
<path d="M1685 2014 c-11 -8 -20 -18 -21 -22 -3 -25 -18 -40 -37 -37 -15 3
-18 2 -10 -6 6 -6 9 -17 7 -24 -3 -7 -1 -16 5 -20 6 -3 14 1 17 9 3 9 11 16
17 16 6 0 7 -3 4 -7 -4 -3 1 -15 10 -26 20 -22 20 -26 1 -38 -8 -6 -9 -9 -1
-9 6 0 10 -8 8 -17 -1 -10 4 -26 13 -35 8 -10 12 -18 7 -18 -4 0 -2 -7 5 -15
7 -8 9 -15 6 -15 -4 0 1 -12 11 -27 11 -16 19 -35 18 -43 -2 -22 14 -40 31
-33 9 3 12 13 9 23 -5 16 17 36 37 32 5 -1 4 22 -2 38 -1 3 -2 9 -1 14 1 5 -6
17 -15 27 -10 11 -18 33 -19 50 -1 20 -10 38 -26 50 -18 15 -19 18 -5 12 16
-5 18 -3 12 13 -4 10 -9 25 -10 31 -1 7 -12 24 -25 37 -13 14 -20 29 -17 35
11 17 -8 20 -29 5z m19 -5 c-3 -6 6 -24 22 -40 15 -16 24 -29 21 -29 -4 0 -3
-9 3 -20 9 -16 8 -18 -5 -14 -23 9 -18 -13 7 -30 13 -10 22 -27 23 -45 1 -17
10 -40 20 -51 10 -11 15 -23 11 -27 -8 -9 -37 19 -40 40 -1 8 -8 23 -16 33
-12 15 -12 16 -1 9 9 -5 12 -4 7 3 -3 5 0 13 6 16 7 3 3 3 -9 1 -12 -3 -24 -1
-28 5 -3 6 -11 8 -16 4 -5 -3 -7 -10 -3 -15 3 -5 10 -7 15 -4 5 4 9 1 9 -5 0
-7 -7 -9 -16 -6 -9 3 -12 2 -9 -5 4 -6 14 -8 22 -5 9 4 11 2 7 -6 -5 -7 -2 -8
7 -3 8 5 11 5 7 0 -4 -4 -3 -14 4 -22 8 -11 7 -12 -6 -7 -9 3 -16 2 -16 -3 0
-5 6 -10 13 -10 7 0 28 -10 45 -23 23 -17 29 -27 21 -36 -6 -7 -16 -11 -23 -8
-9 3 -13 -3 -12 -20 1 -29 -16 -40 -20 -13 -1 9 2 17 6 17 5 0 -2 12 -15 26
-13 14 -21 32 -18 40 3 8 0 14 -7 14 -6 0 -9 4 -6 9 3 5 0 14 -7 20 -7 6 -13
27 -12 48 1 21 -4 45 -11 53 -12 15 -14 18 -14 43 -1 6 -9 2 -20 -11 -17 -21
-19 -21 -17 -3 0 11 4 18 9 15 8 -5 34 36 30 49 -1 5 2 6 7 3 5 -3 11 1 15 9
3 8 8 15 11 15 4 0 3 -5 -1 -11z"/>
<path d="M1680 1975 c-9 -11 -10 -19 -3 -23 5 -4 9 -15 8 -24 -2 -9 3 -22 11
-29 8 -6 11 -16 7 -22 -3 -6 -1 -7 6 -3 6 4 18 4 24 -1 7 -4 5 -1 -4 8 -13 12
-15 19 -6 28 18 18 16 38 -8 61 -20 19 -23 19 -35 5z m46 -38 c-3 -20 -17 -38
-26 -32 -5 3 -7 14 -5 25 2 11 -1 22 -6 25 -5 4 -7 11 -3 16 7 13 43 -17 40
-34z"/>
<path d="M1696 1960 c6 -8 10 -23 8 -33 -1 -11 0 -16 4 -13 12 13 10 36 -6 48
-15 11 -15 11 -6 -2z"/>
<path d="M1700 1816 c0 -2 7 -9 15 -16 9 -7 15 -8 15 -2 0 5 -7 12 -15 16 -8
3 -15 4 -15 2z"/>
<path d="M1737 1757 c-8 -22 26 -50 41 -35 9 9 12 9 12 -1 0 -7 5 -9 11 -6 10
7 -16 32 -35 33 -5 0 -12 6 -16 12 -5 8 -9 7 -13 -3z m38 -19 c4 -3 2 -9 -3
-12 -5 -3 -15 1 -21 8 -10 11 -9 14 3 12 9 -1 18 -5 21 -8z"/>
<path d="M1586 1982 c-2 -4 4 -8 14 -8 10 0 16 4 14 8 -3 4 -9 8 -14 8 -5 0
-11 -4 -14 -8z"/>
<path d="M1799 1568 c-7 -23 -4 -39 7 -49 8 -6 12 -15 9 -19 -3 -5 4 -15 15
-23 11 -7 17 -18 12 -23 -4 -4 0 -3 8 3 8 6 23 9 32 8 12 -2 15 2 11 18 -2 12
-6 31 -8 42 -2 11 -4 22 -5 25 -1 3 -2 9 -1 14 1 5 -14 -3 -33 -17 -35 -27
-46 -26 -41 6 3 13 -2 25 -6 15z m76 -53 c-2 -14 1 -25 6 -25 6 0 7 -5 3 -11
-4 -8 -9 -7 -15 2 -7 11 -9 11 -9 -1 0 -12 -2 -12 -9 -2 -4 8 -12 13 -17 13
-5 -1 -9 5 -10 12 -1 20 17 36 33 30 12 -5 14 -3 8 7 -5 8 -4 11 2 7 6 -4 9
-18 8 -32z"/>
<path d="M1839 1529 c-6 -31 -5 -37 7 -35 22 3 25 12 9 26 -8 7 -15 11 -16 9z"/>
<path d="M1899 1416 c-1 -3 -2 -12 -3 -18 -1 -7 -10 -12 -21 -11 -18 1 -18 0
3 -16 13 -9 20 -20 16 -24 -12 -11 -26 -8 -18 5 5 7 3 8 -6 3 -11 -7 -10 -10
1 -19 8 -6 14 -18 14 -26 -1 -8 5 -23 13 -32 8 -10 11 -22 6 -30 -14 -22 -13
-37 4 -50 9 -7 13 -8 10 -3 -3 6 5 24 18 40 14 17 22 22 18 13 -3 -10 -2 -18
4 -18 11 0 11 18 -1 38 -5 6 -6 12 -2 12 3 0 -1 13 -10 30 -8 16 -15 32 -15
35 1 23 -2 26 -17 21 -15 -5 -15 -4 1 9 11 8 14 15 7 15 -7 0 -10 4 -6 9 3 5
1 12 -5 16 -5 3 -11 4 -11 1z m20 -68 c-1 -1 3 -13 10 -26 21 -39 20 -58 -4
-88 -18 -21 -23 -24 -21 -11 1 10 8 22 14 26 9 5 7 12 -6 24 -10 10 -18 27
-18 40 2 24 15 51 23 43 2 -2 4 -6 2 -8z"/>
<path d="M1909 1348 c-9 -22 -2 -61 12 -74 17 -16 18 -15 14 7 -3 12 -8 25
-13 28 -5 3 -8 14 -6 24 2 14 -3 25 -7 15z"/>
<path d="M1944 1173 c3 -4 0 -14 -8 -22 -10 -11 -12 -21 -6 -31 8 -12 10 -12
10 -1 0 11 3 11 15 1 12 -10 12 -15 1 -33 -11 -20 -13 -37 -6 -52 1 -3 3 -11
4 -17 1 -7 8 -12 15 -10 8 2 11 -3 8 -11 -3 -7 3 -24 13 -37 17 -23 17 -24 -1
-39 -19 -16 -19 -17 7 -46 14 -16 22 -24 18 -16 -5 10 -3 13 8 9 11 -5 14 0
12 18 -1 13 3 24 9 24 6 0 2 7 -9 15 -18 14 -18 15 0 8 13 -4 17 -2 14 8 -3 8
-10 14 -16 14 -10 0 -14 7 -11 18 6 20 5 38 -2 43 -5 3 -6 10 -3 16 5 7 2 8
-6 3 -9 -5 -10 -2 -5 14 6 21 -3 27 -21 14 -5 -5 -1 0 9 10 14 12 15 17 6 17
-12 0 -12 2 -1 9 11 7 11 9 -2 14 -9 4 -13 14 -11 26 2 11 -2 24 -8 28 -15 9
-41 14 -33 6z m32 -34 c1 -10 2 -20 4 -21 15 -20 -10 -71 -27 -54 -3 3 -1 6 6
6 7 0 10 4 6 9 -3 5 0 13 5 16 15 9 -19 47 -34 38 -6 -4 -2 3 8 15 21 24 30
21 32 -9z m19 -90 c-4 -5 -1 -18 7 -27 8 -9 14 -24 14 -32 -1 -23 -31 -18 -31
5 0 13 -6 19 -15 17 -8 -2 -12 0 -8 4 4 4 3 13 -3 21 -9 9 -8 13 0 13 6 0 11
-6 11 -12 0 -7 5 -5 11 5 5 9 12 17 15 17 3 0 2 -5 -1 -11z m31 -144 c1 -8 -5
-20 -14 -27 -9 -8 -13 -8 -9 -2 4 7 -1 15 -11 19 -16 6 -16 7 2 21 21 15 29
12 32 -11z"/>
<path d="M1955 1151 c-3 -5 -2 -12 3 -15 5 -3 9 1 9 9 0 17 -3 19 -12 6z"/>
<path d="M1980 1026 c0 -2 8 -10 18 -17 15 -13 16 -12 3 4 -13 16 -21 21 -21
13z"/>
<path d="M2002 911 c-11 -7 -11 -9 0 -14 9 -3 15 1 15 9 0 8 -1 14 -1 14 -1 0
-7 -4 -14 -9z"/>
<path d="M2022 838 c-15 -15 -15 -25 1 -31 8 -3 13 4 13 19 0 13 0 24 -1 24
-1 0 -6 -5 -13 -12z"/>
<path d="M1223 2645 c0 -7 6 -12 14 -11 19 3 21 19 2 21 -9 2 -16 -3 -16 -10z"/>
<path d="M1433 2336 c19 -15 23 -31 5 -20 -9 5 -9 3 1 -9 7 -9 17 -14 22 -11
13 7 -7 40 -28 48 -17 6 -17 5 0 -8z"/>
<path d="M1613 2095 c4 -4 -3 -19 -15 -33 -13 -13 -18 -23 -13 -22 6 1 12 2
15 0 36 -14 68 -2 40 15 -6 4 -8 10 -5 15 3 4 -3 14 -13 21 -9 7 -14 9 -9 4z
m14 -22 c-4 -3 -2 -12 4 -19 10 -12 7 -12 -30 -5 -5 1 20 31 27 31 3 0 2 -3
-1 -7z"/>
<path d="M4200 1405 c-12 -13 -27 -22 -33 -18 -6 3 -7 1 -4 -4 7 -11 -20 -28
-36 -24 -5 1 -6 -3 -2 -9 7 -11 -22 -45 -39 -45 -6 0 -11 -5 -11 -12 0 -6 -22
-26 -49 -45 -27 -18 -47 -36 -45 -40 6 -9 -32 -48 -42 -43 -4 3 -10 1 -14 -5
-4 -6 -10 -8 -14 -6 -4 3 -25 -13 -47 -36 -21 -22 -34 -38 -28 -35 7 4 17 0
24 -8 7 -8 18 -15 24 -15 7 0 6 3 -2 8 -9 7 -8 13 8 27 11 10 20 14 20 10 0
-4 9 0 20 10 11 10 20 15 20 10 0 -4 7 -2 15 5 8 7 13 16 10 20 -6 10 20 32
33 28 6 -2 23 12 39 30 15 18 36 34 45 36 22 3 59 36 52 47 -5 8 33 33 51 34
6 0 11 6 11 13 1 6 2 17 3 23 0 5 7 7 14 2 27 -17 39 -11 19 10 -11 12 -18 30
-17 40 4 22 3 22 -25 -8z m17 -2 c-4 -3 1 -16 10 -27 16 -18 16 -19 1 -8 -14
11 -18 10 -27 -6 -6 -11 -7 -23 -3 -27 4 -5 2 -5 -5 -1 -6 3 -14 2 -18 -4 -4
-6 -10 -8 -15 -5 -4 3 -11 -3 -15 -13 -3 -9 -5 -18 -3 -18 2 -1 -5 -11 -16
-23 -10 -11 -23 -18 -28 -15 -4 3 -25 -12 -46 -32 -20 -21 -42 -37 -48 -36
-11 2 -42 -27 -43 -40 -1 -5 -3 -7 -5 -5 -2 1 -13 -7 -25 -17 -12 -11 -21 -15
-21 -11 0 5 -11 -2 -24 -14 -13 -12 -26 -18 -30 -13 -3 5 8 22 24 37 17 16 30
25 30 21 0 -5 7 -3 15 4 8 7 15 9 15 4 0 -4 11 3 25 16 13 12 22 27 19 31 -2
4 6 13 18 20 12 7 29 18 36 26 8 7 17 11 22 8 8 -5 25 23 22 38 -1 4 1 6 6 5
8 -3 63 38 63 46 -1 3 1 6 4 6 3 0 17 13 31 30 14 16 28 30 32 30 3 0 2 -3 -1
-7z"/>
<path d="M4184 1365 c-9 -14 -21 -22 -27 -18 -6 3 -7 1 -3 -5 10 -17 12 -16
36 18 12 17 19 30 16 30 -3 0 -13 -11 -22 -25z"/>
<path d="M4106 1291 c-20 -21 -24 -29 -12 -27 17 2 46 26 32 26 -5 0 -3 7 4
15 22 26 5 16 -24 -14z"/>
<path d="M4030 1225 c-13 -14 -22 -27 -19 -29 2 -2 14 10 27 25 29 36 24 38
-8 4z"/>
<path d="M3925 1140 c-4 -6 -10 -8 -14 -5 -5 2 -19 -8 -32 -23 l-24 -27 26 23
c14 12 28 20 31 17 3 -3 11 1 18 10 7 8 10 15 7 15 -3 0 -9 -5 -12 -10z"/>
<path d="M2029 760 c-7 -33 -4 -63 7 -67 8 -3 11 -10 7 -17 -3 -6 -4 -9 0 -6
3 3 6 10 7 15 1 6 7 16 13 23 8 10 5 19 -11 35 -12 12 -22 19 -23 17z m27 -49
c-4 -6 -13 -11 -19 -10 -9 0 -9 2 1 6 6 2 12 9 12 14 0 6 -4 8 -8 5 -5 -3 -9
2 -9 10 0 13 2 13 15 0 8 -8 11 -19 8 -25z"/>
<path d="M2115 571 c-3 -6 -15 -8 -26 -6 -17 3 -18 1 -9 -9 8 -11 8 -15 -2
-19 -10 -4 -10 -6 0 -6 6 -1 12 -6 12 -12 0 -5 -6 -7 -12 -3 -9 5 -8 2 1 -9
11 -13 17 -15 28 -6 11 9 19 7 40 -12 15 -13 21 -16 14 -6 -7 9 -10 17 -6 17
4 0 2 7 -5 15 -7 8 -9 15 -5 15 5 0 1 8 -8 18 -10 10 -14 22 -10 25 3 4 4 7 0
7 -3 0 -8 -4 -12 -9z m17 -29 c7 -7 8 -12 4 -12 -5 0 -3 -8 5 -17 12 -17 12
-17 -6 -1 -16 15 -20 15 -29 2 -9 -11 -11 -9 -11 15 -1 30 15 35 37 13z"/>
<path d="M2106 542 c-3 -5 1 -9 9 -9 8 0 12 4 9 9 -3 4 -7 8 -9 8 -2 0 -6 -4
-9 -8z"/>
<path d="M2175 381 c-3 -5 -2 -12 3 -15 5 -3 9 1 9 9 0 17 -3 19 -12 6z"/>
<path d="M2171 299 c-19 -16 -26 -17 -40 -7 -14 12 -15 11 -1 -6 8 -10 15 -32
16 -49 1 -16 9 -34 18 -39 9 -5 13 -14 9 -21 -5 -9 -3 -9 8 0 8 6 19 12 24 12
9 1 10 30 3 93 -5 37 -9 39 -37 17z m24 -19 c-1 -16 1 -30 5 -30 4 0 7 -13 6
-29 -1 -30 -13 -34 -40 -12 -12 10 -14 17 -5 27 9 11 8 14 -2 14 -11 0 -11 2
1 10 12 8 12 10 1 10 -8 0 -4 8 10 20 13 10 25 19 25 20 1 0 0 -13 -1 -30z"/>
<path d="M2179 285 c-1 -3 -2 -13 -3 -22 -1 -10 -5 -23 -9 -29 -4 -7 0 -17 8
-24 8 -7 15 -11 16 -9 6 31 6 40 -1 44 -5 3 -7 14 -5 25 3 17 -2 30 -6 15z m8
-60 c0 -8 -4 -12 -9 -9 -5 3 -6 10 -3 15 9 13 12 11 12 -6z"/>
<path d="M2373 195 c0 -8 4 -12 9 -9 5 3 6 10 3 15 -9 13 -12 11 -12 -6z"/>
<path d="M2326 193 c-4 -5 -13 -8 -19 -8 -7 -1 -10 -7 -8 -15 2 -8 4 -21 4
-27 1 -19 12 -4 12 15 0 9 6 17 13 17 6 0 12 4 13 8 1 13 -7 18 -15 10z"/>
<path d="M2303 94 c0 -10 3 -12 11 -4 7 7 16 4 29 -12 l19 -23 -14 24 c-16 27
-45 36 -45 15z"/>
<path d="M3115 451 c-3 -5 -2 -12 3 -15 5 -3 9 1 9 9 0 17 -3 19 -12 6z"/>
<path d="M2952 408 c-7 -7 -17 -13 -22 -13 -6 0 -9 -2 -8 -5 1 -3 -3 -14 -9
-25 -10 -18 -8 -20 26 -19 20 0 42 4 49 8 7 4 16 5 20 2 4 -2 19 4 32 15 14
11 18 17 9 13 -10 -3 -20 0 -24 5 -3 6 -11 9 -16 5 -5 -3 -7 -10 -4 -15 9 -13
-17 -10 -37 5 -13 10 -15 15 -6 24 7 7 10 12 7 12 -3 0 -11 -6 -17 -12z m18
-33 c6 -3 10 -12 10 -18 0 -7 -4 -6 -10 3 -9 13 -11 13 -20 0 -7 -11 -10 -11
-10 -2 0 7 -4 11 -8 8 -5 -3 -9 1 -9 9 0 13 26 13 47 0z m55 6 c3 -5 2 -12 -3
-15 -5 -3 -9 1 -9 9 0 17 3 19 12 6z"/>
<path d="M2835 350 c-4 -6 -10 -8 -14 -5 -5 2 -19 -7 -32 -21 -12 -13 -29 -22
-37 -19 -8 3 -10 0 -6 -7 5 -8 2 -9 -9 -5 -9 3 -19 2 -22 -4 -4 -5 -1 -8 7 -7
7 2 12 -4 10 -14 -1 -9 2 -20 8 -23 8 -5 6 -13 -5 -25 -9 -10 -12 -21 -7 -24
5 -3 17 3 26 13 11 13 14 21 7 26 -6 3 -11 11 -11 17 0 6 3 8 7 5 3 -4 15 0
25 10 10 9 21 13 25 10 3 -4 12 -2 20 4 14 12 18 0 6 -17 -5 -5 1 1 13 14 11
12 23 19 27 15 4 -4 14 -8 23 -9 12 -2 13 1 3 12 -6 7 -15 11 -20 9 -8 -6 -35
34 -31 48 3 10 -6 9 -13 -3z m15 -30 c10 -16 3 -33 -10 -25 -5 3 -11 1 -15 -5
-4 -6 -11 -8 -16 -4 -5 3 -17 0 -25 -7 -23 -19 -44 -20 -37 -2 5 12 7 12 14 1
7 -11 9 -10 9 1 0 21 39 59 57 57 8 -1 18 -9 23 -16z m-90 -94 c0 -2 -8 -10
-17 -17 -16 -13 -17 -12 -4 4 13 16 21 21 21 13z"/>
<path d="M2798 310 c-17 -16 -17 -17 5 -14 12 1 24 3 27 4 3 1 8 2 12 1 4 0 5
6 1 15 -4 11 -8 12 -13 4 -4 -7 -9 -8 -11 -3 -2 6 -12 3 -21 -7z"/>
<path d="M2516 228 c-9 -5 -16 -6 -16 -2 0 4 -9 -1 -19 -10 -13 -12 -21 -14
-26 -6 -3 5 -11 8 -16 4 -6 -4 -4 -13 6 -24 13 -15 14 -20 3 -26 -19 -12 -37
-13 -44 -3 -3 6 -12 5 -21 -3 -9 -7 -18 -12 -20 -10 -1 1 -3 0 -3 -3 0 -3 0
-8 0 -11 0 -4 7 -1 15 6 21 17 19 1 -2 -24 -14 -16 -14 -18 -2 -8 9 6 19 9 22
6 3 -3 12 -2 19 2 22 14 36 13 42 -3 5 -12 9 -13 20 -4 10 8 16 9 21 1 4 -7
13 -6 28 2 12 7 29 11 37 9 9 -1 6 4 -7 13 -23 18 -26 63 -5 88 9 12 9 15 -2
15 -8 0 -22 -4 -30 -9z m12 -12 c-18 -13 -26 -32 -10 -22 5 3 9 -1 9 -9 0 -8
-5 -15 -10 -15 -6 0 -2 -9 8 -20 16 -18 14 -25 -7 -21 -5 0 -8 -4 -8 -10 0 -8
-4 -8 -13 0 -10 8 -17 7 -27 -2 -10 -9 -11 -9 -6 1 4 6 2 13 -3 13 -6 1 -17 2
-23 3 -7 1 -19 -2 -26 -7 -7 -6 -15 -7 -19 -3 -3 3 -1 6 7 6 10 0 10 4 -1 18
-13 16 -13 16 5 2 23 -18 20 -19 45 4 20 18 20 20 4 40 -14 16 -14 18 -2 8 13
-10 19 -9 29 3 7 8 15 13 19 11 4 -3 13 -1 21 5 22 13 27 10 8 -5z"/>
<path d="M2480 195 c-7 -8 -9 -15 -5 -15 5 0 1 -8 -8 -18 -12 -13 -13 -19 -5
-20 7 -1 26 -3 41 -6 26 -4 27 -3 14 12 -8 9 -12 23 -10 30 3 6 0 12 -7 12 -6
0 -8 5 -5 10 9 15 -1 12 -15 -5z m8 -18 c-1 -2 3 -11 10 -20 11 -13 10 -15 -8
-10 -15 4 -18 9 -10 18 5 6 8 15 5 18 -3 4 -2 5 1 3 3 -2 4 -6 2 -9z"/>
<path d="M2629 200 c-13 -10 -20 -19 -15 -20 4 0 0 -12 -10 -27 -15 -24 -15
-26 -1 -14 9 7 17 10 17 5 0 -5 7 0 15 10 11 14 15 16 15 5 0 -12 2 -12 9 1 6
8 7 18 4 24 -4 5 3 7 15 4 15 -4 19 -2 15 9 -3 7 -8 11 -11 9 -3 -3 -11 -1
-17 4 -9 7 -20 4 -36 -10z m28 -9 c0 -11 -4 -18 -8 -15 -4 2 -12 -4 -18 -13
-9 -15 -10 -14 -7 7 2 14 9 24 15 23 6 -2 11 2 11 7 0 6 2 10 4 10 3 0 4 -9 3
-19z"/>
<path d="M2199 134 c-11 -13 -10 -17 5 -26 16 -9 17 -10 0 -23 -10 -7 -19 -20
-20 -29 -3 -19 32 -41 41 -26 4 6 10 8 15 5 5 -3 11 -1 15 4 3 5 15 8 26 6 20
-4 20 -3 5 13 -8 10 -14 28 -11 40 4 23 -10 39 -20 22 -3 -5 -11 -10 -17 -10
-6 0 -5 7 3 18 7 9 9 14 5 10 -5 -4 -15 -3 -21 2 -9 7 -16 5 -26 -6z m26 -14
c-9 -15 15 -22 30 -10 12 10 13 8 10 -11 -3 -12 1 -30 7 -38 7 -9 8 -13 4 -9
-5 4 -15 3 -23 -3 -7 -6 -13 -8 -13 -4 0 4 -6 3 -13 -3 -8 -7 -18 -7 -27 -2
-10 7 -11 10 -2 10 6 0 12 5 12 11 0 5 -5 7 -12 3 -7 -4 -8 -3 -4 5 4 6 11 9
16 6 15 -9 19 23 5 35 -16 13 -10 34 6 24 5 -3 7 -9 4 -14z"/>
<path d="M2240 90 c-8 -5 -11 -10 -6 -10 5 0 1 -10 -10 -22 -11 -13 -13 -18
-4 -12 8 5 19 9 24 9 5 0 10 10 11 23 1 12 1 22 1 22 -1 0 -8 -5 -16 -10z"/>
<path d="M1190 2561 c0 -5 7 -11 14 -14 10 -4 13 -1 9 9 -6 15 -23 19 -23 5z"/>
<path d="M3790 1039 c0 -5 -4 -8 -9 -5 -9 6 -32 -17 -45 -44 -4 -8 1 -4 13 10
11 14 25 25 32 25 7 0 14 6 17 13 2 6 1 12 -2 12 -3 0 -6 -5 -6 -11z"/>
<path d="M3566 852 c-3 -5 1 -9 9 -9 8 0 12 4 9 9 -3 4 -7 8 -9 8 -2 0 -6 -4
-9 -8z"/>
<path d="M2069 848 c-6 -15 -4 -60 2 -64 5 -2 6 -11 2 -19 -3 -8 -1 -15 4 -15
11 0 11 38 1 55 -3 6 -4 18 -3 28 3 14 -2 25 -6 15z"/>
<path d="M3469 770 c-18 -22 -35 -37 -40 -35 -4 3 -11 0 -15 -6 -4 -8 -3 -9 4
-5 7 4 12 2 12 -4 0 -7 6 -10 13 -7 6 2 12 9 12 15 0 7 13 28 28 47 15 19 26
35 23 35 -3 0 -19 -18 -37 -40z"/>
<path d="M3385 701 c-3 -5 -2 -12 3 -15 5 -3 9 1 9 9 0 17 -3 19 -12 6z"/>
<path d="M2098 666 c4 -6 7 -19 7 -28 0 -10 4 -18 9 -18 13 -1 17 28 5 36 -5
3 -7 9 -5 13 3 4 -1 8 -9 8 -8 0 -11 -5 -7 -11z"/>
<path d="M2048 626 c-19 -14 -24 -36 -9 -36 11 0 24 19 27 38 3 15 3 15 -18
-2z"/>
<path d="M3194 565 c-10 -8 -17 -15 -14 -15 31 -7 41 -7 46 2 12 19 -11 29
-32 13z"/>
<path d="M3155 529 c-10 -15 3 -25 16 -12 7 7 7 13 1 17 -6 3 -14 1 -17 -5z"/>
<path d="M3126 514 c-4 -9 -9 -14 -13 -10 -3 3 -13 0 -22 -8 -9 -8 -20 -16
-26 -18 -5 -2 -10 -9 -11 -16 -2 -11 1 -11 14 0 9 7 20 18 24 23 5 6 8 4 8 -4
0 -8 9 -2 21 13 12 15 19 29 16 32 -2 3 -7 -3 -11 -12z"/>
</g>
</svg>
